<mxfile host="app.diagrams.net" modified="2023-07-04T20:31:28.159Z" agent="Mozilla/5.0 (Windows NT 10.0; Win64; x64) AppleWebKit/537.36 (KHTML, like Gecko) Chrome/114.0.0.0 Safari/537.36 Edg/114.0.1823.67" etag="wOPqv8BYfXbv_lZX1uZ-" version="21.5.2" type="device">
  <diagram name="Страница 1" id="XWR6Mg31RLSGUb9R5lYL">
    <mxGraphModel dx="874" dy="522" grid="1" gridSize="10" guides="1" tooltips="1" connect="1" arrows="1" fold="1" page="1" pageScale="1" pageWidth="827" pageHeight="1169" math="0" shadow="0">
      <root>
        <mxCell id="0" />
        <mxCell id="1" parent="0" />
        <mxCell id="kmjslfHC8UAdAYg1NQpP-1" value="&lt;font style=&quot;font-size: 24px;&quot;&gt;Генеральный директор&lt;/font&gt;" style="text;html=1;strokeColor=none;fillColor=none;align=center;verticalAlign=middle;whiteSpace=wrap;rounded=0;rotation=0;" vertex="1" parent="1">
          <mxGeometry x="42" y="100" width="204" height="30" as="geometry" />
        </mxCell>
        <mxCell id="kmjslfHC8UAdAYg1NQpP-2" value="&lt;font style=&quot;font-size: 24px;&quot;&gt;Главный бухгалтер&lt;/font&gt;" style="text;html=1;strokeColor=none;fillColor=none;align=center;verticalAlign=middle;whiteSpace=wrap;rounded=0;rotation=0;" vertex="1" parent="1">
          <mxGeometry x="311.5" y="100" width="145" height="30" as="geometry" />
        </mxCell>
        <mxCell id="kmjslfHC8UAdAYg1NQpP-3" value="&lt;font style=&quot;font-size: 24px;&quot;&gt;Руководитель отдела кадров&lt;/font&gt;" style="text;html=1;strokeColor=none;fillColor=none;align=center;verticalAlign=middle;whiteSpace=wrap;rounded=0;rotation=0;" vertex="1" parent="1">
          <mxGeometry x="550" y="100" width="182.5" height="30" as="geometry" />
        </mxCell>
        <mxCell id="kmjslfHC8UAdAYg1NQpP-4" value="Процесс выдачи справки о заработной плате сотруднику компании Первый Бит в нотации UML" style="text;html=1;strokeColor=none;fillColor=none;align=center;verticalAlign=middle;whiteSpace=wrap;rounded=0;fontSize=16;fontStyle=1" vertex="1" parent="1">
          <mxGeometry x="20" y="10" width="788" height="30" as="geometry" />
        </mxCell>
        <mxCell id="kmjslfHC8UAdAYg1NQpP-6" value="" style="endArrow=none;html=1;rounded=0;" edge="1" parent="1">
          <mxGeometry width="50" height="50" relative="1" as="geometry">
            <mxPoint y="60" as="sourcePoint" />
            <mxPoint x="826" y="60" as="targetPoint" />
          </mxGeometry>
        </mxCell>
        <mxCell id="kmjslfHC8UAdAYg1NQpP-12" value="" style="ellipse;html=1;shape=startState;fillColor=#000000;strokeColor=#ff0000;" vertex="1" parent="1">
          <mxGeometry x="604" y="210" width="30" height="30" as="geometry" />
        </mxCell>
        <mxCell id="kmjslfHC8UAdAYg1NQpP-13" value="" style="edgeStyle=orthogonalEdgeStyle;html=1;verticalAlign=bottom;endArrow=open;endSize=8;strokeColor=#ff0000;rounded=0;" edge="1" source="kmjslfHC8UAdAYg1NQpP-12" parent="1">
          <mxGeometry relative="1" as="geometry">
            <mxPoint x="619" y="330" as="targetPoint" />
          </mxGeometry>
        </mxCell>
        <mxCell id="kmjslfHC8UAdAYg1NQpP-45" style="edgeStyle=orthogonalEdgeStyle;rounded=0;orthogonalLoop=1;jettySize=auto;html=1;exitX=0;exitY=0.5;exitDx=0;exitDy=0;dashed=1;dashPattern=8 8;" edge="1" parent="1" source="kmjslfHC8UAdAYg1NQpP-14" target="kmjslfHC8UAdAYg1NQpP-16">
          <mxGeometry relative="1" as="geometry" />
        </mxCell>
        <mxCell id="kmjslfHC8UAdAYg1NQpP-14" value="Регистрация заявления в системе кадрового делопроизовдства" style="rounded=1;whiteSpace=wrap;html=1;arcSize=40;fontColor=#000000;fillColor=#ffffc0;strokeColor=#ff0000;" vertex="1" parent="1">
          <mxGeometry x="544" y="330" width="150" height="70" as="geometry" />
        </mxCell>
        <mxCell id="kmjslfHC8UAdAYg1NQpP-15" value="" style="edgeStyle=orthogonalEdgeStyle;html=1;verticalAlign=bottom;endArrow=open;endSize=8;strokeColor=#ff0000;rounded=0;entryX=0.5;entryY=0;entryDx=0;entryDy=0;" edge="1" source="kmjslfHC8UAdAYg1NQpP-14" parent="1" target="kmjslfHC8UAdAYg1NQpP-17">
          <mxGeometry relative="1" as="geometry">
            <mxPoint x="619" y="460" as="targetPoint" />
          </mxGeometry>
        </mxCell>
        <mxCell id="kmjslfHC8UAdAYg1NQpP-16" value="База 1 С" style="verticalAlign=top;align=left;spacingTop=8;spacingLeft=2;spacingRight=12;shape=cube;size=10;direction=south;fontStyle=4;html=1;whiteSpace=wrap;" vertex="1" parent="1">
          <mxGeometry x="330" y="330" width="100" height="70" as="geometry" />
        </mxCell>
        <mxCell id="kmjslfHC8UAdAYg1NQpP-17" value="Оформление справки о зарплате" style="rounded=1;whiteSpace=wrap;html=1;arcSize=40;fontColor=#000000;fillColor=#ffffc0;strokeColor=#ff0000;" vertex="1" parent="1">
          <mxGeometry x="559.25" y="500" width="120" height="40" as="geometry" />
        </mxCell>
        <mxCell id="kmjslfHC8UAdAYg1NQpP-18" value="" style="edgeStyle=orthogonalEdgeStyle;html=1;verticalAlign=bottom;endArrow=open;endSize=8;strokeColor=#ff0000;rounded=0;entryX=0.5;entryY=0;entryDx=0;entryDy=0;" edge="1" source="kmjslfHC8UAdAYg1NQpP-17" parent="1" target="kmjslfHC8UAdAYg1NQpP-33">
          <mxGeometry relative="1" as="geometry">
            <mxPoint x="619" y="560" as="targetPoint" />
          </mxGeometry>
        </mxCell>
        <mxCell id="kmjslfHC8UAdAYg1NQpP-48" style="edgeStyle=orthogonalEdgeStyle;rounded=0;orthogonalLoop=1;jettySize=auto;html=1;exitX=0.5;exitY=0;exitDx=0;exitDy=0;entryX=0;entryY=0;entryDx=0;entryDy=45;entryPerimeter=0;dashed=1;dashPattern=8 8;" edge="1" parent="1" source="kmjslfHC8UAdAYg1NQpP-19" target="kmjslfHC8UAdAYg1NQpP-16">
          <mxGeometry relative="1" as="geometry">
            <Array as="points">
              <mxPoint x="744" y="190" />
              <mxPoint x="385" y="190" />
            </Array>
          </mxGeometry>
        </mxCell>
        <mxCell id="kmjslfHC8UAdAYg1NQpP-19" value="Справка без подписей и печати" style="html=1;whiteSpace=wrap;" vertex="1" parent="1">
          <mxGeometry x="694" y="655" width="100" height="70" as="geometry" />
        </mxCell>
        <mxCell id="kmjslfHC8UAdAYg1NQpP-46" style="edgeStyle=orthogonalEdgeStyle;rounded=0;orthogonalLoop=1;jettySize=auto;html=1;exitX=0.5;exitY=0;exitDx=0;exitDy=0;entryX=1;entryY=0.46;entryDx=0;entryDy=0;entryPerimeter=0;dashed=1;dashPattern=8 8;" edge="1" parent="1" source="kmjslfHC8UAdAYg1NQpP-21" target="kmjslfHC8UAdAYg1NQpP-16">
          <mxGeometry relative="1" as="geometry" />
        </mxCell>
        <mxCell id="kmjslfHC8UAdAYg1NQpP-21" value="Проверка справки о зарплате с бухгалтерской базой" style="rounded=1;whiteSpace=wrap;html=1;arcSize=40;fontColor=#000000;fillColor=#ffffc0;strokeColor=#ff0000;" vertex="1" parent="1">
          <mxGeometry x="324" y="510" width="120" height="60" as="geometry" />
        </mxCell>
        <mxCell id="kmjslfHC8UAdAYg1NQpP-22" value="" style="edgeStyle=orthogonalEdgeStyle;html=1;verticalAlign=bottom;endArrow=open;endSize=8;strokeColor=#ff0000;rounded=0;entryX=0.5;entryY=0;entryDx=0;entryDy=0;" edge="1" source="kmjslfHC8UAdAYg1NQpP-21" parent="1" target="kmjslfHC8UAdAYg1NQpP-23">
          <mxGeometry relative="1" as="geometry">
            <mxPoint x="384" y="630" as="targetPoint" />
          </mxGeometry>
        </mxCell>
        <mxCell id="kmjslfHC8UAdAYg1NQpP-23" value="Найдены неточности" style="rhombus;whiteSpace=wrap;html=1;fontColor=#000000;fillColor=#ffffc0;strokeColor=#ff0000;" vertex="1" parent="1">
          <mxGeometry x="324" y="660" width="120" height="60" as="geometry" />
        </mxCell>
        <mxCell id="kmjslfHC8UAdAYg1NQpP-24" value="no" style="edgeStyle=orthogonalEdgeStyle;html=1;align=left;verticalAlign=bottom;endArrow=open;endSize=8;strokeColor=#ff0000;rounded=0;entryX=0;entryY=0.5;entryDx=0;entryDy=0;" edge="1" source="kmjslfHC8UAdAYg1NQpP-23" parent="1" target="kmjslfHC8UAdAYg1NQpP-17">
          <mxGeometry x="-1" relative="1" as="geometry">
            <mxPoint x="534" y="690" as="targetPoint" />
          </mxGeometry>
        </mxCell>
        <mxCell id="kmjslfHC8UAdAYg1NQpP-25" value="yes" style="edgeStyle=orthogonalEdgeStyle;html=1;align=left;verticalAlign=top;endArrow=open;endSize=8;strokeColor=#ff0000;rounded=0;entryX=0.5;entryY=0;entryDx=0;entryDy=0;" edge="1" source="kmjslfHC8UAdAYg1NQpP-23" parent="1" target="kmjslfHC8UAdAYg1NQpP-27">
          <mxGeometry x="-1" relative="1" as="geometry">
            <mxPoint x="384" y="730" as="targetPoint" />
          </mxGeometry>
        </mxCell>
        <mxCell id="kmjslfHC8UAdAYg1NQpP-27" value="Подписание справки&lt;br style=&quot;border-color: var(--border-color);&quot;&gt;главным бухгалтером" style="rounded=1;whiteSpace=wrap;html=1;arcSize=40;fontColor=#000000;fillColor=#ffffc0;strokeColor=#ff0000;" vertex="1" parent="1">
          <mxGeometry x="324" y="780" width="120" height="60" as="geometry" />
        </mxCell>
        <mxCell id="kmjslfHC8UAdAYg1NQpP-28" value="" style="edgeStyle=orthogonalEdgeStyle;html=1;verticalAlign=bottom;endArrow=open;endSize=8;strokeColor=#ff0000;rounded=0;entryX=1;entryY=0.5;entryDx=0;entryDy=0;" edge="1" source="kmjslfHC8UAdAYg1NQpP-27" parent="1" target="kmjslfHC8UAdAYg1NQpP-29">
          <mxGeometry relative="1" as="geometry">
            <mxPoint x="384" y="900" as="targetPoint" />
          </mxGeometry>
        </mxCell>
        <mxCell id="kmjslfHC8UAdAYg1NQpP-37" style="edgeStyle=orthogonalEdgeStyle;rounded=0;orthogonalLoop=1;jettySize=auto;html=1;exitX=0.5;exitY=0;exitDx=0;exitDy=0;entryX=0;entryY=0.5;entryDx=0;entryDy=0;" edge="1" parent="1" source="kmjslfHC8UAdAYg1NQpP-29" target="kmjslfHC8UAdAYg1NQpP-23">
          <mxGeometry relative="1" as="geometry" />
        </mxCell>
        <mxCell id="kmjslfHC8UAdAYg1NQpP-29" value="Подписание генеральным директором" style="rounded=1;whiteSpace=wrap;html=1;arcSize=40;fontColor=#000000;fillColor=#ffffc0;strokeColor=#ff0000;" vertex="1" parent="1">
          <mxGeometry x="110" y="785" width="120" height="50" as="geometry" />
        </mxCell>
        <mxCell id="kmjslfHC8UAdAYg1NQpP-30" value="" style="edgeStyle=orthogonalEdgeStyle;html=1;verticalAlign=bottom;endArrow=open;endSize=8;strokeColor=#ff0000;rounded=0;entryX=0.5;entryY=0;entryDx=0;entryDy=0;" edge="1" source="kmjslfHC8UAdAYg1NQpP-29" parent="1" target="kmjslfHC8UAdAYg1NQpP-31">
          <mxGeometry relative="1" as="geometry">
            <mxPoint x="170" y="880" as="targetPoint" />
          </mxGeometry>
        </mxCell>
        <mxCell id="kmjslfHC8UAdAYg1NQpP-31" value="Заверение справки печатью организации" style="rounded=1;whiteSpace=wrap;html=1;arcSize=40;fontColor=#000000;fillColor=#ffffc0;strokeColor=#ff0000;" vertex="1" parent="1">
          <mxGeometry x="110" y="900" width="120" height="60" as="geometry" />
        </mxCell>
        <mxCell id="kmjslfHC8UAdAYg1NQpP-32" value="" style="edgeStyle=orthogonalEdgeStyle;html=1;verticalAlign=bottom;endArrow=open;endSize=8;strokeColor=#ff0000;rounded=0;entryX=0;entryY=0.5;entryDx=0;entryDy=0;" edge="1" source="kmjslfHC8UAdAYg1NQpP-31" parent="1" target="kmjslfHC8UAdAYg1NQpP-33">
          <mxGeometry relative="1" as="geometry">
            <mxPoint x="170" y="1020" as="targetPoint" />
          </mxGeometry>
        </mxCell>
        <mxCell id="kmjslfHC8UAdAYg1NQpP-47" style="edgeStyle=orthogonalEdgeStyle;rounded=0;orthogonalLoop=1;jettySize=auto;html=1;exitX=1;exitY=0.5;exitDx=0;exitDy=0;entryX=0.57;entryY=0.983;entryDx=0;entryDy=0;entryPerimeter=0;dashed=1;dashPattern=12 12;" edge="1" parent="1" source="kmjslfHC8UAdAYg1NQpP-33" target="kmjslfHC8UAdAYg1NQpP-19">
          <mxGeometry relative="1" as="geometry" />
        </mxCell>
        <mxCell id="kmjslfHC8UAdAYg1NQpP-33" value="Регистрация справки в журнале исходящих докуметов" style="rounded=1;whiteSpace=wrap;html=1;arcSize=40;fontColor=#000000;fillColor=#ffffc0;strokeColor=#ff0000;" vertex="1" parent="1">
          <mxGeometry x="559" y="900" width="120" height="60" as="geometry" />
        </mxCell>
        <mxCell id="kmjslfHC8UAdAYg1NQpP-34" value="" style="edgeStyle=orthogonalEdgeStyle;html=1;verticalAlign=bottom;endArrow=open;endSize=8;strokeColor=#ff0000;rounded=0;entryX=0.5;entryY=0;entryDx=0;entryDy=0;" edge="1" source="kmjslfHC8UAdAYg1NQpP-33" parent="1" target="kmjslfHC8UAdAYg1NQpP-35">
          <mxGeometry relative="1" as="geometry">
            <mxPoint x="619" y="1010" as="targetPoint" />
          </mxGeometry>
        </mxCell>
        <mxCell id="kmjslfHC8UAdAYg1NQpP-35" value="" style="ellipse;html=1;shape=endState;fillColor=#000000;strokeColor=#ff0000;" vertex="1" parent="1">
          <mxGeometry x="604.25" y="1030" width="30" height="30" as="geometry" />
        </mxCell>
        <mxCell id="kmjslfHC8UAdAYg1NQpP-38" value="" style="endArrow=none;html=1;rounded=0;" edge="1" parent="1">
          <mxGeometry width="50" height="50" relative="1" as="geometry">
            <mxPoint x="4" y="160" as="sourcePoint" />
            <mxPoint x="824" y="160" as="targetPoint" />
          </mxGeometry>
        </mxCell>
        <mxCell id="kmjslfHC8UAdAYg1NQpP-39" value="" style="endArrow=none;html=1;rounded=0;" edge="1" parent="1">
          <mxGeometry width="50" height="50" relative="1" as="geometry">
            <mxPoint x="270" y="1160" as="sourcePoint" />
            <mxPoint x="270" y="60" as="targetPoint" />
          </mxGeometry>
        </mxCell>
        <mxCell id="kmjslfHC8UAdAYg1NQpP-40" value="" style="endArrow=none;html=1;rounded=0;" edge="1" parent="1">
          <mxGeometry width="50" height="50" relative="1" as="geometry">
            <mxPoint x="510" y="1160" as="sourcePoint" />
            <mxPoint x="510" y="60" as="targetPoint" />
          </mxGeometry>
        </mxCell>
      </root>
    </mxGraphModel>
  </diagram>
</mxfile>
